<svg width="18" height="18" viewBox="0 0 18 18" fill="none" xmlns="http://www.w3.org/2000/svg">
<g clip-path="url(#clip0_717_2330)">
<path d="M8.25 14.25C11.5637 14.25 14.25 11.5637 14.25 8.25C14.25 4.93629 11.5637 2.25 8.25 2.25C4.93629 2.25 2.25 4.93629 2.25 8.25C2.25 11.5637 4.93629 14.25 8.25 14.25Z" stroke="#9C9C9C" stroke-width="2" stroke-linecap="round" stroke-linejoin="round"/>
<path d="M16.3456 17.7583C16.7361 18.1488 17.3692 18.1488 17.7598 17.7583C18.1503 17.3678 18.1503 16.7346 17.7598 16.3441L16.3456 17.7583ZM13.9703 12.5546L13.2632 11.8475L11.849 13.2617L12.5561 13.9688L13.9703 12.5546ZM17.7598 16.3441L13.9703 12.5546L12.5561 13.9688L16.3456 17.7583L17.7598 16.3441Z" fill="#9C9C9C"/>
</g>
<defs>
<clipPath id="clip0_717_2330">
<rect width="18" height="18" fill="#9C9C9C"/>
</clipPath>
</defs>
</svg>
